<svg width="1080" height="648" viewBox="0 0 1080 648"
     xmlns="http://www.w3.org/2000/svg"
     font-family="-apple-system, BlinkMacSystemFont, 'Segoe UI', Roboto, sans-serif">

  <defs>
    <marker id="ah-purple" markerWidth="10" markerHeight="7" refX="9" refY="3.5" orient="auto">
      <polygon points="0 0,10 3.5,0 7" fill="#7c3aed"/>
    </marker>
    <marker id="ah-indigo" markerWidth="10" markerHeight="7" refX="9" refY="3.5" orient="auto">
      <polygon points="0 0,10 3.5,0 7" fill="#6366f1"/>
    </marker>
    <marker id="ah-indigo-r" markerWidth="10" markerHeight="7" refX="1" refY="3.5" orient="auto">
      <polygon points="10 0,0 3.5,10 7" fill="#6366f1"/>
    </marker>
    <marker id="ah-green" markerWidth="10" markerHeight="7" refX="9" refY="3.5" orient="auto">
      <polygon points="0 0,10 3.5,0 7" fill="#10b981"/>
    </marker>
    <marker id="ah-green-r" markerWidth="10" markerHeight="7" refX="1" refY="3.5" orient="auto">
      <polygon points="10 0,0 3.5,10 7" fill="#10b981"/>
    </marker>
    <marker id="ah-yellow" markerWidth="10" markerHeight="7" refX="9" refY="3.5" orient="auto">
      <polygon points="0 0,10 3.5,0 7" fill="#ca8a04"/>
    </marker>
    <filter id="shadow" x="-4%" y="-4%" width="108%" height="108%">
      <feDropShadow dx="0" dy="2" stdDeviation="4" flood-color="#6366f1" flood-opacity="0.12"/>
    </filter>
    <filter id="shadow-fire" x="-4%" y="-4%" width="108%" height="108%">
      <feDropShadow dx="0" dy="2" stdDeviation="4" flood-color="#f97316" flood-opacity="0.12"/>
    </filter>
  </defs>

  <!-- ── Background ─────────────────────────────────────── -->
  <rect width="1080" height="648" fill="#f8f9ff"/>

  <!-- ── Title ──────────────────────────────────────────── -->
  <text x="540" y="33" text-anchor="middle" font-size="20" font-weight="700" fill="#1e1b4b" letter-spacing="-0.3">PocketSync — Architecture</text>
  <text x="540" y="52" text-anchor="middle" font-size="11" fill="#64748b">$0/month · Single-file PWA · Firebase Free Tier · Real-time household sync</text>

  <!-- ── Column dividers ────────────────────────────────── -->
  <line x1="192" y1="64" x2="192" y2="642" stroke="#e2e8f0" stroke-width="1"/>
  <line x1="786" y1="64" x2="786" y2="642" stroke="#e2e8f0" stroke-width="1"/>

  <!-- ── Column headers ─────────────────────────────────── -->
  <text x="96"  y="76" text-anchor="middle" font-size="9" font-weight="600" fill="#94a3b8" letter-spacing="1.4">USER DEVICES</text>
  <text x="489" y="76" text-anchor="middle" font-size="9" font-weight="600" fill="#94a3b8" letter-spacing="1.4">APPLICATION LAYER</text>
  <text x="933" y="76" text-anchor="middle" font-size="9" font-weight="600" fill="#94a3b8" letter-spacing="1.4">EXTERNAL SERVICES</text>


  <!-- ═══════════════════════════════════════════════════
       LEFT — USER DEVICES
  ═══════════════════════════════════════════════════ -->

  <!-- Mohsin phone card -->
  <rect x="14" y="86" width="160" height="178" rx="16" fill="#ede9fe" stroke="#7c3aed" stroke-width="1.5"/>
  <!-- Screen -->
  <rect x="30" y="104" width="128" height="134" rx="7" fill="#fff" stroke="#ddd6fe" stroke-width="1"/>
  <!-- Notch -->
  <rect x="72" y="101" width="50" height="8" rx="4" fill="#7c3aed" opacity="0.3"/>
  <!-- Header bar -->
  <rect x="38" y="112" width="112" height="10" rx="3" fill="#ede9fe"/>
  <!-- KPI cards -->
  <rect x="38" y="127" width="52" height="24" rx="4" fill="#ddd6fe"/>
  <rect x="96" y="127" width="54" height="24" rx="4" fill="#c4b5fd"/>
  <!-- Bar chart -->
  <rect x="38"  y="163" width="10" height="34" rx="2" fill="#6366f1" opacity="0.3"/>
  <rect x="51"  y="153" width="10" height="44" rx="2" fill="#6366f1" opacity="0.5"/>
  <rect x="64"  y="158" width="10" height="39" rx="2" fill="#6366f1" opacity="0.7"/>
  <rect x="77"  y="146" width="10" height="51" rx="2" fill="#6366f1" opacity="0.9"/>
  <rect x="90"  y="161" width="10" height="36" rx="2" fill="#6366f1" opacity="0.6"/>
  <rect x="103" y="155" width="10" height="42" rx="2" fill="#6366f1" opacity="0.8"/>
  <rect x="116" y="168" width="10" height="29" rx="2" fill="#6366f1" opacity="0.4"/>
  <!-- Table rows -->
  <rect x="38" y="203" width="112" height="5" rx="2" fill="#e9d5ff"/>
  <rect x="38" y="212" width="90"  height="5" rx="2" fill="#e9d5ff"/>
  <rect x="38" y="221" width="105" height="5" rx="2" fill="#e9d5ff"/>
  <!-- Bottom nav bar -->
  <rect x="30" y="231" width="128" height="5" rx="0" fill="#6366f1" opacity="0.1"/>
  <rect x="30" y="229" width="128" height="7" rx="3" fill="#6366f1" opacity="0.1"/>
  <circle cx="55"  cy="233" r="3" fill="#8b5cf6" opacity="0.4"/>
  <circle cx="78"  cy="233" r="3" fill="#8b5cf6" opacity="0.4"/>
  <circle cx="94"  cy="233" r="5" fill="#6366f1"/>
  <circle cx="110" cy="233" r="3" fill="#8b5cf6" opacity="0.4"/>
  <circle cx="133" cy="233" r="3" fill="#8b5cf6" opacity="0.4"/>
  <!-- Home bar -->
  <rect x="73" y="242" width="48" height="3" rx="2" fill="#7c3aed" opacity="0.25"/>
  <!-- Label -->
  <text x="94" y="278" text-anchor="middle" font-size="13" font-weight="600" fill="#5b21b6">Mohsin</text>
  <text x="94" y="293" text-anchor="middle" font-size="10"  fill="#7c3aed">Chrome · Android PWA</text>

  <!-- Sync badge between phones -->
  <rect x="24" y="272" width="146" height="20" rx="10" fill="#f0fdf4" stroke="#10b981" stroke-width="1"/>
  <text x="97" y="286" text-anchor="middle" font-size="9.5" font-weight="600" fill="#059669">⟳  syncs in &lt; 1 second</text>

  <!-- Ameena phone card -->
  <rect x="14" y="296" width="160" height="178" rx="16" fill="#ede9fe" stroke="#7c3aed" stroke-width="1.5"/>
  <rect x="30" y="314" width="128" height="134" rx="7" fill="#fff" stroke="#ddd6fe" stroke-width="1"/>
  <rect x="72" y="311" width="50" height="8" rx="4" fill="#7c3aed" opacity="0.3"/>
  <rect x="38" y="322" width="112" height="10" rx="3" fill="#ede9fe"/>
  <rect x="38" y="337" width="52" height="24" rx="4" fill="#c4b5fd"/>
  <rect x="96" y="337" width="54" height="24" rx="4" fill="#ddd6fe"/>
  <rect x="38"  y="373" width="10" height="34" rx="2" fill="#8b5cf6" opacity="0.3"/>
  <rect x="51"  y="363" width="10" height="44" rx="2" fill="#8b5cf6" opacity="0.5"/>
  <rect x="64"  y="368" width="10" height="39" rx="2" fill="#8b5cf6" opacity="0.7"/>
  <rect x="77"  y="356" width="10" height="51" rx="2" fill="#8b5cf6" opacity="0.9"/>
  <rect x="90"  y="371" width="10" height="36" rx="2" fill="#8b5cf6" opacity="0.6"/>
  <rect x="103" y="365" width="10" height="42" rx="2" fill="#8b5cf6" opacity="0.8"/>
  <rect x="116" y="378" width="10" height="29" rx="2" fill="#8b5cf6" opacity="0.4"/>
  <rect x="38" y="413" width="112" height="5" rx="2" fill="#e9d5ff"/>
  <rect x="38" y="422" width="90"  height="5" rx="2" fill="#e9d5ff"/>
  <rect x="38" y="431" width="105" height="5" rx="2" fill="#e9d5ff"/>
  <rect x="30" y="441" width="128" height="7" rx="3" fill="#6366f1" opacity="0.1"/>
  <circle cx="55"  cy="445" r="3" fill="#8b5cf6" opacity="0.4"/>
  <circle cx="78"  cy="445" r="3" fill="#8b5cf6" opacity="0.4"/>
  <circle cx="94"  cy="445" r="5" fill="#6366f1"/>
  <circle cx="110" cy="445" r="3" fill="#8b5cf6" opacity="0.4"/>
  <circle cx="133" cy="445" r="3" fill="#8b5cf6" opacity="0.4"/>
  <rect x="73" y="452" width="48" height="3" rx="2" fill="#7c3aed" opacity="0.25"/>
  <text x="94" y="490" text-anchor="middle" font-size="13" font-weight="600" fill="#5b21b6">Ameena</text>
  <text x="94" y="505" text-anchor="middle" font-size="10"  fill="#7c3aed">Safari · iOS PWA</text>


  <!-- ═══════════════════════════════════════════════════
       CENTER TOP — PWA box
  ═══════════════════════════════════════════════════ -->

  <!-- Shadow -->
  <rect x="204" y="90" width="578" height="354" rx="14" fill="#6366f1" opacity="0.07"/>

  <!-- PWA outer box -->
  <rect x="200" y="86" width="578" height="354" rx="14" fill="#fff" stroke="#6366f1" stroke-width="2" filter="url(#shadow)"/>

  <!-- PWA header bar -->
  <rect x="200" y="86"  width="578" height="44" rx="14" fill="#6366f1"/>
  <rect x="200" y="108" width="578" height="22" fill="#6366f1"/>
  <text x="489" y="112" text-anchor="middle" font-size="13.5" font-weight="700" fill="#fff" letter-spacing="0.2">public / index.html</text>
  <text x="489" y="127" text-anchor="middle" font-size="10"   fill="#c7d2fe">Single-File PWA · Vanilla HTML / CSS / JS · No Build Step</text>

  <!-- ── Chip grid: 3 rows × 2 cols ── -->
  <!-- Layout:
       Left chip col:  x=212, w=265
       Right chip col: x=491, w=275
       Row 1: y=142,  h=68
       Row 2: y=220,  h=76
       Row 3: y=306,  h=68
  -->

  <!-- R1C1 · Dashboard & Charts -->
  <rect x="212" y="142" width="265" height="68" rx="8" fill="#f5f3ff" stroke="#c4b5fd" stroke-width="1.2"/>
  <text x="344" y="167" text-anchor="middle" font-size="12" font-weight="700" fill="#4338ca">Dashboard &amp; Charts</text>
  <text x="344" y="184" text-anchor="middle" font-size="10" fill="#6366f1">KPIs · Donut · Bar · Timeline</text>
  <text x="344" y="200" text-anchor="middle" font-size="10" fill="#6366f1">Accounts · Savings Tips</text>

  <!-- R1C2 · Shared Filter Bar -->
  <rect x="491" y="142" width="275" height="68" rx="8" fill="#f5f3ff" stroke="#c4b5fd" stroke-width="1.2"/>
  <text x="628" y="167" text-anchor="middle" font-size="12" font-weight="700" fill="#4338ca">Shared Filter Bar</text>
  <text x="628" y="184" text-anchor="middle" font-size="10" fill="#6366f1">Month · Owner · Category</text>
  <text x="628" y="200" text-anchor="middle" font-size="10" fill="#6366f1">Account · Type · Search</text>

  <!-- R2C1 · Import Pipeline -->
  <rect x="212" y="220" width="265" height="76" rx="8" fill="#f5f3ff" stroke="#c4b5fd" stroke-width="1.2"/>
  <text x="344" y="245" text-anchor="middle" font-size="12" font-weight="700" fill="#4338ca">Import Pipeline</text>
  <text x="344" y="262" text-anchor="middle" font-size="10" fill="#6366f1">CSV parser · PDF.js extraction</text>
  <text x="344" y="278" text-anchor="middle" font-size="10" fill="#6366f1">AI parse · Fingerprint dedup</text>
  <text x="344" y="290" text-anchor="middle" font-size="9"  fill="#818cf8">batch.set(doc(fingerprint), tx)</text>

  <!-- R2C2 · AI Chat -->
  <rect x="491" y="220" width="275" height="76" rx="8" fill="#f5f3ff" stroke="#c4b5fd" stroke-width="1.2"/>
  <text x="628" y="245" text-anchor="middle" font-size="12" font-weight="700" fill="#4338ca">AI Chat</text>
  <text x="628" y="262" text-anchor="middle" font-size="10" fill="#6366f1">5-provider support</text>
  <text x="628" y="278" text-anchor="middle" font-size="10" fill="#6366f1">Dashboard action control</text>
  <text x="628" y="290" text-anchor="middle" font-size="9"  fill="#818cf8">works offline (built-in engine)</text>

  <!-- R3C1 · Firestore Client -->
  <rect x="212" y="306" width="265" height="68" rx="8" fill="#f5f3ff" stroke="#c4b5fd" stroke-width="1.2"/>
  <text x="344" y="331" text-anchor="middle" font-size="12" font-weight="700" fill="#4338ca">Firestore Client</text>
  <text x="344" y="348" text-anchor="middle" font-size="10" fill="#6366f1">onSnapshot real-time listener</text>
  <text x="344" y="364" text-anchor="middle" font-size="9"  fill="#818cf8">Firebase Compat SDK v10 (CDN)</text>

  <!-- R3C2 · Auth + Service Worker -->
  <rect x="491" y="306" width="275" height="68" rx="8" fill="#f5f3ff" stroke="#c4b5fd" stroke-width="1.2"/>
  <text x="628" y="331" text-anchor="middle" font-size="12" font-weight="700" fill="#4338ca">Auth &amp; Service Worker</text>
  <text x="628" y="348" text-anchor="middle" font-size="10" fill="#6366f1">Email/Password · Allowlist rules</text>
  <text x="628" y="364" text-anchor="middle" font-size="9"  fill="#818cf8">Offline cache · CDN pre-cache</text>


  <!-- ═══════════════════════════════════════════════════
       CENTER BOTTOM — Firebase box
  ═══════════════════════════════════════════════════ -->

  <!-- Shadow -->
  <rect x="204" y="476" width="578" height="160" rx="14" fill="#f97316" opacity="0.07"/>

  <!-- Firebase outer box -->
  <rect x="200" y="472" width="578" height="160" rx="14" fill="#fff7ed" stroke="#f97316" stroke-width="2" filter="url(#shadow-fire)"/>

  <!-- Firebase header -->
  <rect x="200" y="472" width="578" height="42" rx="14" fill="#f97316"/>
  <rect x="200" y="492" width="578" height="22" fill="#f97316"/>
  <text x="489" y="496" text-anchor="middle" font-size="13.5" font-weight="700" fill="#fff">Firebase Platform</text>
  <text x="489" y="511" text-anchor="middle" font-size="10"   fill="#fed7aa">Free Tier · poketsync project</text>

  <!-- Firebase chips (3 equal cols) -->
  <!-- Hosting -->
  <rect x="212" y="524" width="172" height="96" rx="8" fill="#fff" stroke="#fdba74" stroke-width="1.5"/>
  <text x="298" y="553" text-anchor="middle" font-size="18">🔥</text>
  <text x="298" y="574" text-anchor="middle" font-size="12"   font-weight="700" fill="#c2410c">Hosting</text>
  <text x="298" y="591" text-anchor="middle" font-size="10"   fill="#ea580c">poketsync.web.app</text>
  <text x="298" y="607" text-anchor="middle" font-size="10"   fill="#ea580c">Global CDN · Free SSL</text>

  <!-- Firestore -->
  <rect x="398" y="524" width="172" height="96" rx="8" fill="#fff" stroke="#fdba74" stroke-width="1.5"/>
  <text x="484" y="553" text-anchor="middle" font-size="18">🗄</text>
  <text x="484" y="574" text-anchor="middle" font-size="12"   font-weight="700" fill="#c2410c">Firestore DB</text>
  <text x="484" y="591" text-anchor="middle" font-size="10"   fill="#ea580c">transactions collection</text>
  <text x="484" y="607" text-anchor="middle" font-size="10"   fill="#ea580c">Doc ID = tx fingerprint</text>

  <!-- Auth -->
  <rect x="584" y="524" width="182" height="96" rx="8" fill="#fff" stroke="#fdba74" stroke-width="1.5"/>
  <text x="675" y="553" text-anchor="middle" font-size="18">🔐</text>
  <text x="675" y="574" text-anchor="middle" font-size="12"   font-weight="700" fill="#c2410c">Firebase Auth</text>
  <text x="675" y="591" text-anchor="middle" font-size="10"   fill="#ea580c">Email / Password</text>
  <text x="675" y="607" text-anchor="middle" font-size="10"   fill="#ea580c">Allowlist in security rules</text>


  <!-- ═══════════════════════════════════════════════════
       RIGHT — EXTERNAL SERVICES
  ═══════════════════════════════════════════════════ -->

  <!-- AI Providers box -->
  <rect x="798" y="86"  width="270" height="258" rx="12" fill="#f0fdf4" stroke="#10b981" stroke-width="1.5"/>
  <rect x="798" y="86"  width="270" height="40"  rx="12" fill="#10b981"/>
  <rect x="798" y="106" width="270" height="20"  fill="#10b981"/>
  <text x="933" y="111" text-anchor="middle" font-size="13" font-weight="700" fill="#fff">AI Providers</text>

  <!-- AI chips -->
  <rect x="810" y="136" width="246" height="38" rx="6" fill="#dcfce7" stroke="#86efac" stroke-width="1"/>
  <text x="822" y="158" font-size="11.5" font-weight="600" fill="#166534">⚙  Built-in Engine</text>
  <text x="1054" y="158" text-anchor="end" font-size="10" fill="#15803d">free · offline</text>

  <rect x="810" y="179" width="246" height="38" rx="6" fill="#dcfce7" stroke="#86efac" stroke-width="1"/>
  <text x="822" y="201" font-size="11.5" font-weight="600" fill="#166534">✦  Gemini</text>
  <text x="1054" y="201" text-anchor="end" font-size="10" fill="#15803d">AIza… · free tier</text>

  <rect x="810" y="222" width="246" height="38" rx="6" fill="#dcfce7" stroke="#86efac" stroke-width="1"/>
  <text x="822" y="244" font-size="11.5" font-weight="600" fill="#166534">⚡  Groq</text>
  <text x="1054" y="244" text-anchor="end" font-size="10" fill="#15803d">gsk_… · free tier</text>

  <rect x="810" y="265" width="246" height="38" rx="6" fill="#dcfce7" stroke="#86efac" stroke-width="1"/>
  <text x="822" y="287" font-size="11.5" font-weight="600" fill="#166534">◈  OpenRouter</text>
  <text x="1054" y="287" text-anchor="end" font-size="10" fill="#15803d">sk-or… · free</text>

  <rect x="810" y="308" width="246" height="32" rx="6" fill="#dcfce7" stroke="#86efac" stroke-width="1"/>
  <text x="822" y="328" font-size="11.5" font-weight="600" fill="#166534">◆  Claude API</text>
  <text x="1054" y="328" text-anchor="end" font-size="10" fill="#15803d">sk-ant… · paid</text>

  <!-- Data Sources box -->
  <rect x="798" y="356" width="270" height="148" rx="12" fill="#fefce8" stroke="#ca8a04" stroke-width="1.5"/>
  <rect x="798" y="356" width="270" height="40"  rx="12" fill="#ca8a04"/>
  <rect x="798" y="376" width="270" height="20"  fill="#ca8a04"/>
  <text x="933" y="381" text-anchor="middle" font-size="13" font-weight="700" fill="#fff">Data Sources</text>

  <rect x="810" y="406" width="246" height="44" rx="6" fill="#fef9c3" stroke="#fde047" stroke-width="1"/>
  <text x="933" y="428" text-anchor="middle" font-size="12"   font-weight="600" fill="#854d0e">📄  Bank CSV Exports</text>
  <text x="933" y="444" text-anchor="middle" font-size="9.5"  fill="#a16207">date · desc · category · account · amount</text>

  <rect x="810" y="455" width="246" height="44" rx="6" fill="#fef9c3" stroke="#fde047" stroke-width="1"/>
  <text x="933" y="477" text-anchor="middle" font-size="12"   font-weight="600" fill="#854d0e">📑  Bank PDF Statements</text>
  <text x="933" y="493" text-anchor="middle" font-size="9.5"  fill="#a16207">PDF.js extract → AI parse → preview</text>


  <!-- ═══════════════════════════════════════════════════
       ARROWS
  ═══════════════════════════════════════════════════ -->

  <!-- Mohsin phone → PWA (horizontal) -->
  <line x1="175" y1="178" x2="198" y2="178"
        stroke="#7c3aed" stroke-width="1.8" marker-end="url(#ah-purple)"/>

  <!-- Ameena phone → PWA (horizontal) -->
  <line x1="175" y1="388" x2="198" y2="388"
        stroke="#7c3aed" stroke-width="1.8" marker-end="url(#ah-purple)"/>

  <!-- PWA ↔ Firebase (bidirectional vertical) -->
  <!-- Down: PWA → Firebase -->
  <line x1="480" y1="441" x2="480" y2="470"
        stroke="#6366f1" stroke-width="2" marker-end="url(#ah-indigo)"/>
  <!-- Up: Firebase → PWA -->
  <line x1="500" y1="470" x2="500" y2="441"
        stroke="#6366f1" stroke-width="2" marker-end="url(#ah-indigo)"/>
  <!-- Label -->
  <text x="515" y="460" font-size="9.5" fill="#6366f1">real-time</text>
  <text x="465" y="460" text-anchor="end" font-size="9.5" fill="#6366f1">serves</text>

  <!-- AI Providers ↔ PWA AI Chat chip (right edge of PWA ↔ left edge of AI box) -->
  <!-- Queries: PWA → AI -->
  <line x1="779" y1="248" x2="796" y2="240"
        stroke="#10b981" stroke-width="1.8" stroke-dasharray="5,3"
        marker-end="url(#ah-green)"/>
  <!-- Responses: AI → PWA -->
  <line x1="796" y1="256" x2="779" y2="264"
        stroke="#10b981" stroke-width="1.8" stroke-dasharray="5,3"
        marker-end="url(#ah-green-r)"/>
  <!-- Labels -->
  <text x="785" y="239" text-anchor="end" font-size="9" fill="#10b981">queries</text>
  <text x="785" y="278" text-anchor="end" font-size="9" fill="#10b981">responses</text>

  <!-- Data Sources → PWA Import Pipeline (enters right side of PWA box) -->
  <line x1="797" y1="428" x2="779" y2="380"
        stroke="#ca8a04" stroke-width="1.8"
        marker-end="url(#ah-yellow)"/>
  <text x="800" y="412" font-size="9" fill="#ca8a04">CSV / PDF</text>
  <text x="800" y="423" font-size="9" fill="#ca8a04">import</text>

</svg>
